<svg width="15" height="15" viewBox="0 0 15 15" fill="none" xmlns="http://www.w3.org/2000/svg">
<path d="M12.1413 7.29751C12.1413 7.3926 12.1389 7.4865 12.1341 7.58037C12.1088 8.13288 12.0089 8.66614 11.844 9.16928C11.4829 10.2755 10.8112 11.2397 9.93127 11.9607C8.89246 12.8093 7.56595 13.3197 6.11907 13.3197C2.79317 13.3197 0.0968323 10.6234 0.0968323 7.29748C0.0968323 5.59542 0.802213 4.05947 1.93732 2.96409C2.3496 2.56517 2.817 2.2275 3.32523 1.9614C3.79829 1.71343 4.30867 1.52567 4.84553 1.41129C5.26398 1.32065 5.69092 1.27505 6.11907 1.27527C6.22861 1.27527 6.33815 1.27767 6.44649 1.28491C8.01613 1.36796 9.42692 2.0541 10.4513 3.11456C10.821 3.49662 11.1383 3.92608 11.395 4.3917C11.6695 4.88838 11.8713 5.42183 11.9944 5.97578C12.0923 6.40953 12.1416 6.85284 12.1413 7.29751V7.29751Z" fill="#94C1FF"/>
<path d="M2.96641 10.5152C3.52127 10.606 4.02576 10.8602 4.42645 11.2273L4.3799 11.3067L3.53577 12.7392L3.19308 13.3208C2.96641 13.7062 2.4703 13.8345 2.08487 13.6078C1.82843 13.4566 1.6857 13.1865 1.6857 12.9094C1.6857 12.7698 1.72232 12.6285 1.79788 12.4995L2.17874 11.8523H2.1795L2.91526 10.6022L2.96641 10.5152V10.5152ZM10.5491 1.40306C10.5491 1.4916 10.5376 1.58089 10.514 1.66943L10.4392 1.94497C10.4056 2.07091 10.2369 2.09456 10.1698 1.98314L9.94083 1.60304C9.84236 1.44428 9.62102 1.45041 9.53096 1.60457L9.21881 2.13425L8.928 2.62805C8.85702 2.74815 8.82254 2.88633 8.82878 3.0257L8.84861 3.49278C8.85402 3.63217 8.81932 3.77018 8.74862 3.89043L6.78561 7.22268C6.78333 7.22116 6.7818 7.21963 6.77952 7.21811C6.34373 6.91205 5.87205 6.65256 5.37901 6.44649C5.3752 6.44497 5.3706 6.44344 5.36679 6.44192L8.1938 1.64277L8.6418 0.882603C8.92877 0.394898 9.55692 0.232329 10.0446 0.519292C10.3628 0.706997 10.5491 1.04587 10.5491 1.40306V1.40306Z" fill="#D7E9FF"/>
<path d="M2.07583 6.40158C2.07478 6.3763 2.08381 6.35163 2.10094 6.33301C2.11807 6.31439 2.14189 6.30333 2.16717 6.30226C2.29174 6.29708 2.4009 6.29456 2.50087 6.29456C2.52616 6.29456 2.55043 6.30461 2.56832 6.32249C2.58621 6.34038 2.59626 6.36465 2.59626 6.38995C2.59626 6.41525 2.58621 6.43951 2.56832 6.4574C2.55043 6.47529 2.52616 6.48534 2.50087 6.48534C2.4036 6.48534 2.29705 6.4878 2.17514 6.4929C2.16262 6.49343 2.15012 6.49148 2.13836 6.48718C2.12659 6.48288 2.11578 6.4763 2.10656 6.46782C2.09734 6.45934 2.08988 6.44912 2.0846 6.43776C2.07933 6.42639 2.07635 6.4141 2.07583 6.40158V6.40158ZM3.76631 6.59971C3.54418 6.55817 3.32001 6.5283 3.09474 6.51024C3.08225 6.50925 3.07008 6.50581 3.05892 6.50011C3.04777 6.49441 3.03784 6.48658 3.02971 6.47704C3.02158 6.46751 3.01541 6.45647 3.01155 6.44455C3.00769 6.43263 3.00621 6.42007 3.0072 6.40758C3.01136 6.35508 3.05771 6.31624 3.10986 6.32004C3.34183 6.33864 3.57267 6.3694 3.80141 6.41221C3.82594 6.41721 3.84752 6.43166 3.8615 6.45242C3.87547 6.47319 3.88073 6.49862 3.87612 6.52323C3.87151 6.54784 3.85742 6.56965 3.83688 6.58395C3.81634 6.59826 3.79099 6.60392 3.76631 6.59971V6.59971Z" fill="white"/>
<path d="M12.2389 9.85807C12.2505 9.86278 12.2629 9.86515 12.2754 9.86506C12.2879 9.86496 12.3003 9.86239 12.3118 9.85751C12.3234 9.85262 12.3338 9.84551 12.3426 9.83658C12.3514 9.82764 12.3583 9.81707 12.363 9.80545C12.3999 9.71501 12.4343 9.62359 12.4663 9.53129C12.4746 9.50738 12.473 9.48117 12.4619 9.45843C12.4508 9.43569 12.4311 9.41828 12.4072 9.41003C12.3954 9.40593 12.3828 9.40421 12.3703 9.40496C12.3578 9.40571 12.3456 9.40893 12.3343 9.41441C12.3231 9.4199 12.313 9.42756 12.3047 9.43695C12.2964 9.44634 12.29 9.45727 12.286 9.46913C12.2551 9.55823 12.2218 9.64649 12.1862 9.73382C12.1815 9.74544 12.1791 9.75786 12.1792 9.77039C12.1793 9.78293 12.1819 9.79532 12.1868 9.80686C12.1917 9.8184 12.1988 9.82886 12.2077 9.83765C12.2167 9.84644 12.2272 9.85338 12.2389 9.85807V9.85807ZM11.9702 10.2155C11.7529 10.652 11.4869 11.0625 11.1774 11.4393C11.1614 11.4588 11.1537 11.4839 11.1562 11.5091C11.1586 11.5343 11.171 11.5575 11.1905 11.5736C11.2101 11.5896 11.2352 11.5973 11.2604 11.5948C11.2856 11.5924 11.3088 11.58 11.3248 11.5605C11.6434 11.1726 11.9172 10.75 12.141 10.3007C12.1466 10.2894 12.1499 10.2772 12.1508 10.2647C12.1517 10.2522 12.1501 10.2397 12.1461 10.2278C12.1421 10.2159 12.1358 10.2049 12.1276 10.1955C12.1194 10.186 12.1094 10.1783 12.0981 10.1727C12.0869 10.1671 12.0747 10.1638 12.0622 10.1629C12.0497 10.162 12.0372 10.1636 12.0253 10.1676C12.0134 10.1715 12.0024 10.1778 11.9929 10.1861C11.9835 10.1943 11.9758 10.2043 11.9702 10.2155V10.2155ZM1.10188 3.10502C1.15801 3.03765 1.21561 2.97152 1.27464 2.90668C1.29166 2.88796 1.30053 2.86323 1.29932 2.83796C1.2981 2.81269 1.2869 2.78893 1.26817 2.77192C1.24944 2.75491 1.22472 2.74603 1.19945 2.74725C1.17417 2.74846 1.15042 2.75966 1.1334 2.77839C1.07249 2.8453 1.01305 2.91354 0.955133 2.98306C0.947125 2.9927 0.941093 3.00382 0.937383 3.01579C0.933673 3.02775 0.932357 3.04034 0.933511 3.05281C0.934664 3.06529 0.938264 3.07742 0.944106 3.0885C0.949947 3.09959 0.957915 3.10941 0.967555 3.11742C0.977186 3.12543 0.988301 3.13147 1.00027 3.13518C1.01223 3.13889 1.02481 3.14021 1.03729 3.13906C1.04976 3.13791 1.06189 3.13431 1.07297 3.12847C1.08406 3.12263 1.09388 3.11466 1.10188 3.10502V3.10502ZM1.62389 2.5507C1.97417 2.21765 2.36513 1.92231 2.78598 1.67296C2.79683 1.66662 2.80632 1.65818 2.8139 1.64816C2.82149 1.63813 2.82701 1.6267 2.83016 1.61453C2.83331 1.60236 2.83402 1.58968 2.83226 1.57723C2.83049 1.56479 2.82628 1.55281 2.81987 1.542C2.81346 1.53118 2.80498 1.52174 2.79491 1.51421C2.78484 1.50669 2.77338 1.50123 2.76119 1.49815C2.749 1.49507 2.73632 1.49443 2.72389 1.49626C2.71145 1.4981 2.6995 1.50237 2.68872 1.50884C2.25553 1.76545 1.85305 2.0695 1.49241 2.41245C1.48333 2.42108 1.47604 2.43142 1.47096 2.44287C1.46588 2.45432 1.4631 2.46666 1.46278 2.47918C1.46247 2.4917 1.46463 2.50417 1.46913 2.51586C1.47363 2.52755 1.48039 2.53824 1.48902 2.54731C1.50646 2.56565 1.53047 2.5763 1.55576 2.57694C1.56828 2.57725 1.58074 2.5751 1.59244 2.57059C1.60413 2.56609 1.61482 2.55933 1.62389 2.5507V2.5507Z" fill="#116FFF"/>
<path d="M14.9033 14.5268H12.5655C12.1999 14.5268 11.8801 14.2795 11.7893 13.9246C11.6764 13.4865 11.281 13.1797 10.8276 13.1797H7.79156C8.59066 12.9522 9.34244 12.5653 9.99193 12.0348C11.4176 10.8656 12.2366 9.13458 12.2366 7.29749C12.2366 5.22304 11.1848 3.24477 9.34775 2.10298L9.61259 1.65269C9.66907 1.5573 9.80188 1.56034 9.85836 1.65193L10.0881 2.03202C10.1987 2.21595 10.4758 2.17704 10.5315 1.97021L10.6055 1.69391C10.7368 1.20925 10.5254 0.69178 10.0926 0.436868C9.56068 0.123948 8.87302 0.30178 8.55934 0.833753L8.15103 1.52677C7.48321 1.29245 6.79631 1.17951 6.11932 1.17951C2.78249 1.17951 0.00131226 3.87292 0.00131226 7.29752C0.00131226 9.11399 0.79889 10.7458 2.05974 11.8677L1.71553 12.4508C1.46214 12.882 1.60564 13.4361 2.03607 13.6903C2.46881 13.9444 3.02369 13.7971 3.27556 13.3697L3.5755 12.8599C4.35017 13.2163 5.21185 13.4147 6.11932 13.4147C6.57037 13.4147 6.80012 13.3705 6.85813 13.3705H10.8276C11.0056 13.3704 11.1786 13.4295 11.3192 13.5385C11.4599 13.6476 11.5603 13.8003 11.6046 13.9727C11.7168 14.4115 12.1122 14.7176 12.5655 14.7176H14.9033C14.9283 14.7171 14.9522 14.7069 14.9697 14.689C14.9872 14.6712 14.9971 14.6472 14.997 14.6222C14.997 14.5971 14.9872 14.5731 14.9697 14.5553C14.9521 14.5374 14.9283 14.5272 14.9033 14.5268V14.5268ZM9.99421 11.7822C9.90568 11.3502 9.78204 10.9305 9.62405 10.5274C10.0721 9.79857 10.8582 9.32689 11.7084 9.2704C11.3772 10.2077 10.8017 11.0831 9.99421 11.7822ZM11.7725 9.07734C10.8773 9.11167 10.0408 9.57574 9.53627 10.3122C9.33819 9.84704 9.09347 9.40312 8.80587 8.98728C9.67288 8.07676 10.8765 7.62339 12.0328 7.66994C12.003 8.1546 11.9145 8.62781 11.7725 9.07734ZM12.0458 7.29749C12.0458 7.35855 12.0435 7.4196 12.0412 7.4799C10.846 7.43106 9.60116 7.89357 8.69446 8.83004C8.41816 8.45147 8.10676 8.09659 7.76103 7.77146C8.87076 6.66556 10.3423 6.05955 11.9168 6.06869C12.003 6.47323 12.0458 6.88842 12.0458 7.29749V7.29749ZM11.8725 5.87791C10.2652 5.87944 8.76008 6.50604 7.62137 7.64325C7.41225 7.45549 7.19167 7.27918 6.9604 7.11357L7.7992 5.69015C8.84941 4.99866 10.0606 4.58194 11.3398 4.49112C11.5757 4.92884 11.7547 5.39487 11.8725 5.87791V5.87791ZM9.99573 0.601721C10.3552 0.813128 10.53 1.24206 10.4216 1.64428L10.3468 1.92058C10.3346 1.96561 10.2751 1.97325 10.2514 1.93356L10.0217 1.5527C9.88584 1.33365 9.57597 1.33977 9.44853 1.55574L8.84557 2.57923C8.7655 2.71536 8.72653 2.87174 8.73336 3.02952L8.7532 3.4966C8.75799 3.61757 8.72778 3.73735 8.66618 3.84157L6.8039 7.00362C6.40903 6.73522 5.98999 6.50423 5.55222 6.31365L8.72346 0.930667C8.98218 0.491038 9.5523 0.340686 9.99573 0.601721V0.601721ZM8.18156 5.04064C8.27085 5.05971 8.36167 5.07729 8.45249 5.091C8.30227 5.16667 8.15463 5.24736 8.00982 5.33293L8.18156 5.04064ZM11.2375 4.30871C10.388 4.37894 9.56911 4.58882 8.80587 4.92465C8.79518 4.92922 8.78451 4.93382 8.77306 4.93839C8.60847 4.92479 8.44485 4.90134 8.28307 4.86817L8.83107 3.93855C8.90281 3.8172 8.93944 3.67983 8.94172 3.54014C9.46072 3.57907 9.98047 3.46458 10.4308 3.23179C10.7397 3.55893 11.0104 3.92024 11.2375 4.30871V4.30871ZM10.2919 3.08985C9.87667 3.29287 9.40118 3.38674 8.93715 3.34781L8.92341 3.02115C8.91861 2.90018 8.94883 2.7804 9.01042 2.67617L9.25083 2.26707C9.62738 2.50173 9.97656 2.7777 10.2919 3.08985V3.08985ZM8.0518 1.69543L7.43665 2.73875C7.02451 2.39531 6.71387 1.92896 6.56964 1.38937C7.07481 1.42714 7.57299 1.53001 8.0518 1.69543V1.69543ZM6.11932 1.3703C6.2109 1.3703 6.29334 1.37258 6.37042 1.37639C6.52001 1.9908 6.86958 2.52122 7.33971 2.90437L6.61617 4.1324C5.76746 3.51037 5.15841 2.57847 4.95538 1.48783C5.33701 1.41073 5.7278 1.3703 6.11932 1.3703V1.3703ZM4.7707 1.52674C4.98439 2.67081 5.62476 3.64851 6.51925 4.29726L5.80488 5.51003C4.61654 4.68726 3.76247 3.44932 3.43429 2.01292C3.86094 1.79615 4.30971 1.63282 4.7707 1.52674ZM3.26179 2.1045C3.60984 3.57143 4.48754 4.83532 5.70717 5.67489L5.37518 6.23967C4.82718 6.01757 4.26087 5.8611 3.68006 5.77259C2.94125 4.97882 2.37723 4.01947 2.04676 2.99293C2.40316 2.65403 2.80693 2.35485 3.26179 2.1045V2.1045ZM1.89562 3.14249C2.21463 4.09042 2.72677 4.97882 3.38926 5.73365C3.09837 5.70063 2.80584 5.68407 2.51308 5.68406C1.76894 5.68406 1.03702 5.79166 0.334828 6.00078C0.572953 4.92691 1.10645 3.94312 1.89562 3.14249V3.14249ZM0.192093 7.29749C0.192093 6.94411 0.222621 6.5915 0.292084 6.21143C1.00646 5.98781 1.75288 5.87484 2.51308 5.87484C3.50223 5.87484 4.46235 6.06565 5.36677 6.44191C5.37058 6.44343 5.37518 6.44495 5.37899 6.44648C5.87202 6.65255 6.3437 6.91203 6.7795 7.2181C6.78178 7.21962 6.7833 7.22115 6.78559 7.22267C8.38684 8.34615 9.46529 10.0123 9.82704 11.9211C9.42753 12.2409 8.98834 12.5077 8.5204 12.7148C8.34409 10.9625 7.41067 9.43373 6.06357 8.44763C5.62854 8.12938 5.15074 7.86758 4.64091 7.67372C3.96097 7.41423 3.2393 7.28128 2.51153 7.28144C1.71166 7.28144 0.938519 7.43712 0.208881 7.74166C0.197919 7.59386 0.192319 7.4457 0.192093 7.29749V7.29749ZM1.42165 10.9053C1.76358 10.7488 2.12917 10.6687 2.51156 10.6687C2.59476 10.6687 2.67717 10.6732 2.75885 10.6809L2.15821 11.6998C1.88923 11.4577 1.64271 11.1918 1.42165 10.9053V10.9053ZM2.13298 13.5254C1.79334 13.3254 1.67961 12.8881 1.88036 12.5477L2.96337 10.7084C3.45108 10.7938 3.89604 11.0144 4.25551 11.3296L3.11068 13.2728C2.91073 13.6124 2.47338 13.7261 2.13298 13.5254V13.5254ZM3.67242 12.695L4.39748 11.4647C4.83251 11.9051 5.11567 12.4943 5.15841 13.1461C4.64535 13.0619 4.14569 12.9103 3.67242 12.695V12.695ZM6.11932 13.224C5.86288 13.224 5.61483 13.2087 5.35227 13.1744C5.31333 12.4073 4.96227 11.7166 4.42649 11.2274C4.02579 10.8603 3.5213 10.6061 2.96645 10.5153C2.81609 10.4904 2.66395 10.4779 2.51156 10.4779C2.08795 10.4779 1.68193 10.5687 1.30414 10.748C1.02907 10.365 0.800288 9.95074 0.622582 9.51392C1.20492 9.22312 1.85595 9.06972 2.51156 9.06972C2.92904 9.06972 3.33354 9.13077 3.71592 9.24527C4.24409 9.4025 4.73024 9.66046 5.15232 9.99629C6.09872 10.7511 6.71999 11.899 6.76042 13.1881C6.57726 13.2079 6.39102 13.224 6.11932 13.224V13.224ZM5.24923 9.83141C4.82563 9.4971 4.341 9.23838 3.81512 9.07581C3.40221 8.94758 2.96413 8.87891 2.51153 8.87891C1.83225 8.87891 1.1591 9.03767 0.554613 9.33685C0.384427 8.87434 0.275267 8.39501 0.227191 7.93863C0.949213 7.62875 1.717 7.47231 2.51153 7.47231C3.22286 7.47231 3.90823 7.60283 4.54324 7.84095C5.05115 8.03132 5.5302 8.29126 5.96665 8.61333C7.27863 9.57805 8.18229 11.077 8.33724 12.7928C7.89228 12.9721 7.42596 13.0965 6.94895 13.1645C6.90163 11.8158 6.24524 10.6152 5.24923 9.83141Z" fill="#116FFF"/>
</svg>
